<?xml version="1.0" encoding="UTF-8"?>
<svg id="_图层_2" data-name="图层 2" xmlns="http://www.w3.org/2000/svg" viewBox="0 0 186.62 56.69">
  <defs>
    <style>
      .cls-1 {
        fill: rgb(241, 241, 241);
      }
    </style>
  </defs>
  <g id="_图层_1-2" data-name="图层 1">
    <g>
      <polygon class="cls-1" points="16.44 0 0 0 0 56.69 16.44 56.69 16.44 35.8 36.22 35.8 36.22 20.27 16.44 20.27 16.44 0"/>
      <rect class="cls-1" x="40.25" y="0" width="16.44" height="56.69"/>
    </g>
    <path class="cls-1" d="M186.62,28.35c0,15.65-12.69,28.34-28.34,28.34s-28.35-12.69-28.35-28.34S142.62,0,158.28,0c6.35,0,12.21,2.09,16.94,5.62l-9.84,9.84c-2.11-1.16-4.53-1.83-7.1-1.83-8.13,0-14.72,6.59-14.72,14.72s6.59,14.71,14.72,14.71,14.71-6.59,14.71-14.71c0-2.58-.66-5-1.82-7.1l9.84-9.84c3.52,4.72,5.61,10.59,5.61,16.94Z"/>
    <polygon class="cls-1" points="116.09 56.69 129.93 56.69 97.2 0 64.46 56.69 78.3 56.69 84.37 46.18 104.11 46.18 97.19 34.2 91.28 34.2 97.2 23.96 116.09 56.69"/>
  </g>
</svg>