<?xml version="1.0" encoding="UTF-8"?>
<svg id="_图层_2" data-name="图层 2" xmlns="http://www.w3.org/2000/svg" viewBox="0 0 171.38 57.07">
  <defs>
    <style>
      .cls-1 {
        fill: #212121;
      }
    </style>
  </defs>
  <g id="_图层_1-2" data-name="图层 1">
    <g>
      <polygon class="cls-1" points="157.54 56.69 171.38 56.69 138.65 0 105.91 56.69 119.75 56.69 125.82 46.18 145.56 46.18 138.64 34.2 132.73 34.2 138.65 23.96 157.54 56.69"/>
      <polygon class="cls-1" points="72.84 0 56.39 0 56.39 21.72 56.39 34.97 56.39 56.69 72.84 56.69 72.84 56.69 103.56 56.69 103.56 43.39 72.84 43.39 72.84 34.97 96.87 34.97 96.87 21.72 72.84 21.72 72.84 13.3 103.56 13.3 103.56 0 72.84 0 72.84 0"/>
      <polygon class="cls-1" points="16.44 0 0 0 0 21.72 0 26.6 0 34.97 30.72 34.97 30.72 43.01 0 43.01 0 57.07 47.16 57.07 47.16 56.69 47.16 43.01 47.16 21.73 40.48 21.73 40.48 21.72 16.44 21.72 16.44 13.3 47.16 13.3 47.16 0 16.44 0 16.44 0"/>
    </g>
  </g>
</svg>