<?xml version="1.0" encoding="UTF-8"?>
<svg id="_图层_2" data-name="图层 2" xmlns="http://www.w3.org/2000/svg" viewBox="0 0 172.67 57.47">
  <defs>
    <style>
      .cls-1 {
        fill: #fff;
      }
    </style>
  </defs>
  <g id="_图层_1-2" data-name="图层 1">
    <g>
      <path class="cls-1" d="M167.06,11.41l-9.84,9.84c1.16,2.1,1.82,4.52,1.82,7.1,0,8.12-6.59,14.71-14.71,14.71s-14.72-6.59-14.72-14.71,6.59-14.72,14.72-14.72c2.57,0,4.99,.67,7.1,1.83l9.84-9.84c-4.73-3.53-10.59-5.62-16.94-5.62-15.66,0-28.35,12.69-28.35,28.35s12.69,28.34,28.35,28.34,28.34-12.69,28.34-28.34c0-6.35-2.09-12.22-5.61-16.94Z"/>
      <path class="cls-1" d="M102.71,.78H63.99V57.47h38.72c3.13,0,5.67-2.54,5.67-5.67v-8.79h-28.15v-7.91h19.52v-12.46h-19.52v-7.41h28.15V6.44c0-3.13-2.54-5.67-5.67-5.67Z"/>
      <path class="cls-1" d="M53.56,23.32h-19.69c-3.13,0-5.67,2.54-5.67,5.67v4.38h14.23c-.68,2.25-1.9,4.38-3.68,6.16-5.74,5.74-15.06,5.74-20.8,0-5.75-5.75-5.74-15.07,0-20.81,5.47-5.47,14.17-5.72,19.95-.78h16.49c-1.38-3.21-3.36-6.23-5.98-8.85-11.07-11.08-29.02-11.08-40.09-.01-11.07,11.06-11.08,29.01,0,40.09,11.06,11.07,29.01,11.08,40.08,.01,4.46-4.45,7.12-10.03,7.99-15.8h.03v-7.22c0-1.57-1.27-2.83-2.83-2.83Z"/>
    </g>
  </g>
</svg>